<?xml version="1.0" encoding="UTF-8" standalone="no"?>
<!-- Created with Inkscape (http://www.inkscape.org/) -->

<svg
   xmlns:dc="http://purl.org/dc/elements/1.1/"
   xmlns:cc="http://creativecommons.org/ns#"
   xmlns:rdf="http://www.w3.org/1999/02/22-rdf-syntax-ns#"
   xmlns:svg="http://www.w3.org/2000/svg"
   xmlns="http://www.w3.org/2000/svg"
   xmlns:sodipodi="http://sodipodi.sourceforge.net/DTD/sodipodi-0.dtd"
   xmlns:inkscape="http://www.inkscape.org/namespaces/inkscape"
   width="750"
   height="140"
   id="svg2"
   version="1.1"
   inkscape:version="0.91 r"
   sodipodi:docname="webrtc-logo-horiz-retro-dist.svg"
   inkscape:export-filename="/usr/local/google/home/louquillio/working/webrtc-site/assets/images/webrtc-logo-vert-retro-255x305.png"
   inkscape:export-xdpi="90"
   inkscape:export-ydpi="90">
  <defs
     id="defs4" />
  <sodipodi:namedview
     id="base"
     pagecolor="#ffffff"
     bordercolor="#666666"
     borderopacity="1.0"
     inkscape:pageopacity="0"
     inkscape:pageshadow="2"
     inkscape:zoom="1"
     inkscape:cx="499.563"
     inkscape:cy="47.934022"
     inkscape:document-units="px"
     inkscape:current-layer="layer1"
     showgrid="false"
     fit-margin-top="5"
     fit-margin-left="5"
     fit-margin-right="5"
     fit-margin-bottom="5"
     inkscape:window-width="1300"
     inkscape:window-height="791"
     inkscape:window-x="1110"
     inkscape:window-y="404"
     inkscape:window-maximized="0" />
  <metadata
     id="metadata7">
    <rdf:RDF>
      <cc:Work
         rdf:about="">
        <dc:format>image/svg+xml</dc:format>
        <dc:type
           rdf:resource="http://purl.org/dc/dcmitype/StillImage" />
        <dc:title></dc:title>
      </cc:Work>
    </rdf:RDF>
  </metadata>
  <g
     inkscape:label="Layer 1"
     inkscape:groupmode="layer"
     id="layer1"
     transform="translate(220.38306,-399.84144)">
    <g
       id="g3502"
       transform="matrix(0.55642988,0,0,0.55642988,20.745876,215.69875)">
      <g
         transform="matrix(3.9482691,0,0,-3.9482691,263.23496,518.97915)"
         id="g376">
        <path
           inkscape:connector-curvature="0"
           id="path378"
           style="fill:#ff6600;fill-opacity:1;fill-rule:nonzero;stroke:none"
           d="m 0,0 c 0,-7.534 -6.107,-13.642 -13.641,-13.642 -7.535,0 -13.642,6.108 -13.642,13.642 0,7.534 6.107,13.642 13.642,13.642 C -6.107,13.642 0,7.534 0,0" />
      </g>
      <g
         transform="matrix(3.9482691,0,0,-3.9482691,369.76125,443.57273)"
         id="g404">
        <path
           inkscape:connector-curvature="0"
           id="path406"
           style="fill:#ffcc00;fill-opacity:1;fill-rule:nonzero;stroke:none"
           d="m 0,0 c 0,-7.533 -6.107,-13.642 -13.641,-13.642 -7.535,0 -13.642,6.109 -13.642,13.642 0,7.534 6.107,13.643 13.642,13.643 C -6.107,13.643 0,7.534 0,0" />
      </g>
      <g
         transform="matrix(3.9482691,0,0,-3.9482691,238.09949,442.37758)"
         id="g408">
        <path
           inkscape:connector-curvature="0"
           id="path410"
           style="fill:#0089cc;fill-opacity:1;fill-rule:nonzero;stroke:none"
           d="m 0,0 c 0,-7.533 -6.107,-13.642 -13.642,-13.642 -7.533,0 -13.641,6.109 -13.641,13.642 0,7.534 6.108,13.643 13.641,13.643 C -6.107,13.643 0,7.534 0,0" />
      </g>
      <g
         transform="matrix(3.9482691,0,0,-3.9482691,345.82485,518.97915)"
         id="g412">
        <path
           inkscape:connector-curvature="0"
           id="path414"
           style="fill:#009939;fill-opacity:1;fill-rule:nonzero;stroke:none"
           d="m 0,0 c 0,-7.534 -6.107,-13.642 -13.643,-13.642 -7.533,0 -13.641,6.108 -13.641,13.642 0,7.534 6.108,13.642 13.641,13.642 C -6.107,13.642 0,7.534 0,0" />
      </g>
      <g
         transform="matrix(3.9482691,0,0,-3.9482691,303.93214,394.49692)"
         id="g416">
        <path
           inkscape:connector-curvature="0"
           id="path418"
           style="fill:#bf0000;fill-opacity:1;fill-rule:nonzero;stroke:none"
           d="m 0,0 c 0,-7.534 -6.108,-13.642 -13.642,-13.642 -7.534,0 -13.642,6.108 -13.642,13.642 0,7.534 6.108,13.642 13.642,13.642 C -6.108,13.642 0,7.534 0,0" />
      </g>
      <g
         transform="matrix(3.9482691,0,0,-3.9482691,262.03983,443.57273)"
         id="g420">
        <path
           inkscape:connector-curvature="0"
           id="path422"
           style="fill:#fc0007;fill-opacity:1;fill-rule:nonzero;stroke:none"
           d="M 0,0 C 0,-0.287 0.025,-0.568 0.043,-0.851 6.094,0.545 10.61,5.955 10.61,12.43 c 0,0.287 -0.025,0.569 -0.043,0.852 C 4.516,11.885 0,6.475 0,0" />
      </g>
      <g
         transform="matrix(3.9482691,0,0,-3.9482691,269.1459,470.24289)"
         id="g424">
        <path
           inkscape:connector-curvature="0"
           id="path426"
           style="fill:#1cd306;fill-opacity:1;fill-rule:nonzero;stroke:none"
           d="m 0,0 c 2.351,-4.11 6.769,-6.887 11.843,-6.887 2.068,0 4.021,0.474 5.778,1.298 -2.35,4.11 -6.768,6.887 -11.843,6.887 C 3.71,1.298 1.757,0.824 0,0" />
      </g>
      <g
         transform="matrix(3.9482691,0,0,-3.9482691,238.09949,518.97915)"
         id="g428">
        <path
           inkscape:connector-curvature="0"
           id="path430"
           style="fill:#0f7504;fill-opacity:1;fill-rule:nonzero;stroke:none"
           d="M 0,0 C 0,-3.333 1.198,-6.383 3.184,-8.752 5.168,-6.383 6.366,-3.333 6.366,0 6.366,3.333 5.168,6.383 3.184,8.752 1.198,6.383 0,3.333 0,0" />
      </g>
      <g
         transform="matrix(3.9482691,0,0,-3.9482691,162.9126,491.82927)"
         id="g432">
        <path
           inkscape:connector-curvature="0"
           id="path434"
           style="fill:#0c5e87;fill-opacity:1;fill-rule:nonzero;stroke:none"
           d="m 0,0 c 1.657,-0.716 3.481,-1.117 5.401,-1.117 5.024,0 9.401,2.723 11.769,6.766 C 15.513,6.365 13.688,6.765 11.769,6.765 6.745,6.765 2.367,4.042 0,0" />
      </g>
      <g
         transform="matrix(3.9482691,0,0,-3.9482691,196.43855,389.95287)"
         id="g436">
        <path
           inkscape:connector-curvature="0"
           id="path438"
           style="fill:#6b0001;fill-opacity:1;fill-rule:nonzero;stroke:none"
           d="m 0,0 c -0.032,-0.38 -0.059,-0.762 -0.059,-1.151 0,-6.47 4.509,-11.875 10.553,-13.277 0.031,0.38 0.058,0.762 0.058,1.15 C 10.552,-6.808 6.044,-1.401 0,0" />
      </g>
      <g
         transform="matrix(3.9482691,0,0,-3.9482691,201.46628,512.31444)"
         id="g482">
        <path
           inkscape:connector-curvature="0"
           id="path484"
           style="fill:#ffffff;fill-opacity:1;fill-rule:nonzero;stroke:none"
           d="M 0,0 -2.134,0 C -4.018,0 -5.55,1.527 -5.55,3.406 l 0,19.316 c 0,1.879 1.532,3.407 3.416,3.407 l 26.759,0 c 1.884,0 3.415,-1.528 3.415,-3.407 l 0,-19.316 C 28.04,1.527 26.509,0 24.625,0 L 15.509,0 -2.781,-8.966 0,0 Z" />
      </g>
    </g>
    <g
       style="font-style:normal;font-variant:normal;font-weight:bold;font-stretch:normal;font-size:142.62451172px;line-height:125%;font-family:'Arial Rounded MT Bold';-inkscape-font-specification:'Arial Rounded MT Bold, Bold';text-align:start;letter-spacing:0px;word-spacing:0px;writing-mode:lr-tb;text-anchor:start;fill:#333333;fill-opacity:1;stroke:none"
       id="text2996">
      <path
         d="m -133.65989,507.44091 -16.50489,-61.21433 -16.71381,61.21433 q -1.94994,6.96409 -3.13384,10.02829 -1.11425,2.99456 -3.96953,5.43199 -2.85527,2.36779 -7.59085,2.36779 -3.83025,0 -6.33732,-1.46246 -2.43743,-1.39282 -3.96953,-3.96953 -1.5321,-2.64636 -2.50708,-6.19804 -0.97497,-3.62133 -1.74102,-6.68552 l -16.99237,-68.73555 q -1.5321,-5.98911 -1.5321,-9.12295 0,-3.96953 2.78563,-6.68553 2.78564,-2.71599 6.89445,-2.71599 5.64091,0 7.59086,3.62133 1.94994,3.62132 3.4124,10.51577 l 13.37105,59.61259 14.97279,-55.78234 q 1.67138,-6.40697 2.99455,-9.74973 1.32318,-3.34276 4.31774,-5.78019 2.99456,-2.43743 8.14798,-2.43743 5.22307,0 8.07834,2.57671 2.92492,2.50707 4.03917,5.50163 1.11426,2.99456 2.99456,9.88901 l 15.11207,55.78234 13.37105,-59.61259 q 0.97497,-4.66594 1.81066,-7.31229 0.90533,-2.64636 2.99456,-4.73558 2.158865,-2.08923 6.198036,-2.08923 4.039171,0 6.824806,2.71599 2.855276,2.64636 2.855276,6.68553 0,2.85527 -1.5321,9.12295 l -16.992378,68.73555 q -1.74102,6.96408 -2.92491,10.2372 -1.11426,3.20348 -3.89989,5.64092 -2.71599,2.43743 -7.73014,2.43743 -4.73558,0 -7.59085,-2.36779 -2.85528,-2.36779 -3.96953,-5.29271 -1.11426,-2.99456 -3.13384,-10.16757 z"
         style=""
         id="path3505" />
      <path
         d="m -23.975527,491.28423 -37.188227,0 q 0.06964,6.4766 2.576713,11.4211 2.576712,4.9445 6.755164,7.45158 4.248094,2.50707 9.331878,2.50707 3.412403,0 6.198038,-0.76605 2.855275,-0.83569 5.501629,-2.50707 2.646353,-1.74103 4.874861,-3.69097 2.228508,-1.94994 5.780193,-5.29271 1.462458,-1.25353 4.178452,-1.25353 2.924917,0 4.73558,1.60174 1.8106623,1.60174 1.8106623,4.52665 0,2.57672 -2.0195853,6.05876 -2.019585,3.4124 -6.128397,6.61588 -4.039171,3.13384 -10.237209,5.22307 -6.128397,2.08923 -14.137097,2.08923 -18.31555,0 -28.483118,-10.44614 -10.167568,-10.44613 -10.167568,-28.34383 0,-8.42655 2.507072,-15.59956 2.507071,-7.24265 7.312292,-12.39607 4.80522,-5.15343 11.838948,-7.86942 7.033729,-2.78564 15.599556,-2.78564 11.14254,0 19.0816,4.73558 8.008701,4.66594 11.97823,12.11751 3.9695303,7.45158 3.9695303,15.18172 0,7.17301 -4.1088113,9.33187 -4.108812,2.08923 -11.560386,2.08923 z m -37.188227,-10.79434 34.472233,0 q -0.696408,-9.74972 -5.292706,-14.55494 -4.526657,-4.87486 -11.978231,-4.87486 -7.103369,0 -11.699667,4.9445 -4.526656,4.87486 -5.501629,14.4853 z"
         style=""
         id="path3507" />
      <path
         d="m 23.240995,430.55739 0,29.04024 q 5.362348,-5.57127 10.933618,-8.49619 5.57127,-2.99455 13.788893,-2.99455 9.471159,0 16.574528,4.52665 7.17301,4.45702 11.072899,13.02285 3.96953,8.49618 3.96953,20.19585 0,8.63547 -2.228508,15.87812 -2.158867,7.17301 -6.33732,12.46572 -4.178452,5.2927 -10.167567,8.21762 -5.919475,2.85528 -13.092485,2.85528 -4.387375,0 -8.287264,-1.04462 -3.830248,-1.04461 -6.546242,-2.71599 -2.715994,-1.74102 -4.665939,-3.55169 -1.880303,-1.81066 -5.014143,-5.43198 l 0,1.8803 q 0,5.36235 -2.576712,8.14798 -2.576713,2.716 -6.546242,2.716 -4.039171,0 -6.4766018,-2.716 -2.3677897,-2.78563 -2.3677897,-8.14798 l 0,-83.01192 q 0,-5.7802 2.2981488,-8.70511 2.3677898,-2.99456 6.5462427,-2.99456 4.387375,0 6.755164,2.85528 2.36779,2.78563 2.36779,8.0087 z m 0.905332,56.47875 q 0,11.35146 5.153424,17.47986 5.223066,6.05875 13.649612,6.05875 7.17301,0 12.326435,-6.19804 5.223065,-6.26768 5.223065,-17.8977 0,-7.52122 -2.158867,-12.9532 -2.158867,-5.43199 -6.128397,-8.35691 -3.96953,-2.99456 -9.262236,-2.99456 -5.431988,0 -9.680082,2.99456 -4.248093,2.92492 -6.685524,8.56583 -2.43743,5.57127 -2.43743,13.30141 z"
         style=""
         id="path3509" />
    </g>
    <g
       style="font-style:normal;font-variant:normal;font-weight:bold;font-stretch:normal;font-size:150px;line-height:125%;font-family:'Arial Rounded MT Bold';-inkscape-font-specification:'Arial Rounded MT Bold, Bold';text-align:start;letter-spacing:0px;word-spacing:0px;writing-mode:lr-tb;text-anchor:start;fill:#333333;fill-opacity:1;stroke:none"
       id="text4255">
      <path
         d="m 271.05408,477.6051 -7.61719,0 0,34.49707 q 0,6.81153 -3.00293,10.03418 -3.00293,3.22266 -7.83691,3.22266 -5.2002,0 -8.05664,-3.36914 -2.85645,-3.36914 -2.85645,-9.8877 l 0,-82.61718 q 0,-7.03125 3.14941,-10.18067 3.14942,-3.14941 10.18067,-3.14941 l 35.37597,0 q 7.32422,0 12.52442,0.65918 5.20019,0.58593 9.375,2.49023 5.05371,2.12402 8.93555,6.0791 3.88183,3.95508 5.85937,9.22852 2.05078,5.20019 2.05078,11.05957 0,12.01172 -6.81152,19.18945 -6.73828,7.17774 -20.50781,10.18067 5.78613,3.07617 11.05957,9.08203 5.27343,6.00586 9.375,12.81738 4.1748,6.73828 6.44531,12.23145 2.34375,5.41992 2.34375,7.4707 0,2.12402 -1.3916,4.24805 -1.31836,2.05078 -3.66211,3.22265 -2.34375,1.24512 -5.41992,1.24512 -3.66211,0 -6.15235,-1.75781 -2.49023,-1.68457 -4.32129,-4.32129 -1.75781,-2.63672 -4.83398,-7.76367 l -8.71582,-14.50196 q -4.6875,-7.9834 -8.42285,-12.1582 -3.66211,-4.17481 -7.47071,-5.71289 -3.80859,-1.53809 -9.59472,-1.53809 z m 12.45117,-45.11718 -20.06836,0 0,29.5166 19.48242,0 q 7.83692,0 13.1836,-1.31836 5.34667,-1.3916 8.12988,-4.61426 2.85644,-3.2959 2.85644,-9.00879 0,-4.46777 -2.2705,-7.83691 -2.27051,-3.44239 -6.29883,-5.12696 -3.8086,-1.61132 -15.01465,-1.61132 z"
         style=""
         id="path3512" />
      <path
         d="m 412.19177,434.09924 -23.73047,0 0,78.00293 q 0,6.73828 -3.00293,10.03418 -3.00293,3.22266 -7.76367,3.22266 -4.83398,0 -7.91015,-3.2959 -3.00293,-3.2959 -3.00293,-9.96094 l 0,-78.00293 -23.73047,0 q -5.56641,0 -8.27637,-2.41699 -2.70996,-2.49023 -2.70996,-6.51855 0,-4.17481 2.7832,-6.5918 2.85645,-2.41699 8.20313,-2.41699 l 69.14062,0 q 5.63965,0 8.34961,2.49023 2.7832,2.49024 2.7832,6.51856 0,4.02832 -2.7832,6.51855 -2.7832,2.41699 -8.34961,2.41699 z"
         style=""
         id="path3514" />
      <path
         d="m 523.88611,489.61682 q 0,5.12695 -2.56348,11.13281 -2.49023,5.93262 -7.91015,11.71875 -5.41993,5.71289 -13.84278,9.30176 -8.42285,3.58887 -19.6289,3.58887 -8.4961,0 -15.45411,-1.61133 -6.958,-1.61133 -12.67089,-4.98047 -5.63965,-3.44238 -10.40039,-9.00879 -4.24805,-5.05371 -7.25098,-11.27929 -3.00293,-6.29883 -4.54102,-13.40332 -1.46484,-7.1045 -1.46484,-15.08789 0,-12.96387 3.73535,-23.21778 3.80859,-10.2539 10.83984,-17.50488 7.03125,-7.32422 16.4795,-11.13281 9.44824,-3.8086 20.1416,-3.8086 13.03711,0 23.21777,5.2002 10.18067,5.20019 15.60059,12.89062 5.41992,7.61719 5.41992,14.42871 0,3.73536 -2.63672,6.5918 -2.63672,2.85645 -6.37207,2.85645 -4.1748,0 -6.29883,-1.97754 -2.05078,-1.97754 -4.61426,-6.81153 -4.24804,-7.98339 -10.03418,-11.93847 -5.71289,-3.95508 -14.13574,-3.95508 -13.40332,0 -21.38672,10.18066 -7.91015,10.18067 -7.91015,28.93067 0,12.52441 3.51562,20.87402 3.51563,8.27637 9.96094,12.37793 6.44531,4.10156 15.08789,4.10156 9.375,0 15.82031,-4.61426 6.51856,-4.6875 9.81446,-13.69628 1.3916,-4.24805 3.44238,-6.88477 2.05078,-2.70996 6.5918,-2.70996 3.88183,0 6.66504,2.70996 2.7832,2.70996 2.7832,6.73828 z"
         style=""
         id="path3516" />
    </g>
  </g>
</svg>
