<?xml version="1.0" encoding="UTF-8" standalone="no"?>
<!-- Created with Inkscape (http://www.inkscape.org/) -->

<svg
   xmlns:dc="http://purl.org/dc/elements/1.1/"
   xmlns:cc="http://creativecommons.org/ns#"
   xmlns:rdf="http://www.w3.org/1999/02/22-rdf-syntax-ns#"
   xmlns:svg="http://www.w3.org/2000/svg"
   xmlns="http://www.w3.org/2000/svg"
   xmlns:sodipodi="http://sodipodi.sourceforge.net/DTD/sodipodi-0.dtd"
   xmlns:inkscape="http://www.inkscape.org/namespaces/inkscape"
   width="255"
   height="305"
   id="svg2"
   version="1.1"
   inkscape:version="0.91 r"
   sodipodi:docname="webrtc-logo-vert-retro-dist.svg"
   inkscape:export-filename="/usr/local/google/home/louquillio/working/webrtc-site/assets/images/webrtc-logo-vert-retro-255x305.png"
   inkscape:export-xdpi="90"
   inkscape:export-ydpi="90">
  <defs
     id="defs4" />
  <sodipodi:namedview
     id="base"
     pagecolor="#ffffff"
     bordercolor="#666666"
     borderopacity="1.0"
     inkscape:pageopacity="0"
     inkscape:pageshadow="2"
     inkscape:zoom="1"
     inkscape:cx="-161.5"
     inkscape:cy="148.15562"
     inkscape:document-units="px"
     inkscape:current-layer="layer1"
     showgrid="false"
     fit-margin-top="5"
     fit-margin-left="5"
     fit-margin-right="5"
     fit-margin-bottom="5"
     inkscape:window-width="1300"
     inkscape:window-height="791"
     inkscape:window-x="951"
     inkscape:window-y="456"
     inkscape:window-maximized="0" />
  <metadata
     id="metadata7">
    <rdf:RDF>
      <cc:Work
         rdf:about="">
        <dc:format>image/svg+xml</dc:format>
        <dc:type
           rdf:resource="http://purl.org/dc/dcmitype/StillImage" />
        <dc:title />
      </cc:Work>
    </rdf:RDF>
  </metadata>
  <g
     inkscape:label="Layer 1"
     inkscape:groupmode="layer"
     id="layer1"
     transform="translate(-122.61692,-335.06304)">
    <g
       style="font-style:normal;font-variant:normal;font-weight:bold;font-stretch:normal;font-size:60.31361389px;line-height:125%;font-family:'Arial Rounded MT Bold';-inkscape-font-specification:'Arial Rounded MT Bold, Bold';text-align:start;letter-spacing:0px;word-spacing:0px;writing-mode:lr-tb;text-anchor:start;fill:#333333;fill-opacity:1;stroke:none"
       id="text2996">
      <path
         d="m 161.86727,627.52383 -6.97965,-25.88656 -7.068,25.88656 q -0.8246,2.945 -1.32525,4.2408 -0.4712,1.26635 -1.67865,2.2971 -1.20745,1.0013 -3.21005,1.0013 -1.61975,0 -2.67995,-0.61845 -1.03075,-0.589 -1.67865,-1.67865 -0.6479,-1.1191 -1.0602,-2.62105 -0.4123,-1.5314 -0.73625,-2.8272 l -7.1858,-29.06716 q -0.6479,-2.5327 -0.6479,-3.85795 0,-1.67865 1.178,-2.8272 1.178,-1.14855 2.91555,-1.14855 2.38545,0 3.21005,1.5314 0.8246,1.5314 1.44305,4.44695 l 5.6544,25.20921 6.33175,-23.58946 q 0.7068,-2.7094 1.26635,-4.123 0.55955,-1.4136 1.8259,-2.44435 1.26635,-1.03075 3.44565,-1.03075 2.20875,0 3.4162,1.08965 1.2369,1.0602 1.7081,2.32655 0.4712,1.26635 1.26635,4.1819 l 6.39066,23.58946 5.6544,-25.20921 q 0.4123,-1.97315 0.7657,-3.09225 0.38285,-1.1191 1.26635,-2.0026 0.91295,-0.8835 2.62105,-0.8835 1.7081,0 2.8861,1.14855 1.20745,1.1191 1.20745,2.8272 0,1.20745 -0.6479,3.85795 l -7.1858,29.06716 q -0.73625,2.945 -1.2369,4.32915 -0.4712,1.3547 -1.6492,2.38545 -1.14855,1.03075 -3.26895,1.03075 -2.0026,0 -3.21005,-1.0013 -1.20746,-1.0013 -1.67866,-2.2382 -0.4712,-1.26635 -1.32525,-4.2997 z"
         style=""
         id="path3441" />
      <path
         d="m 208.25103,620.69143 -15.7263,0 q 0.0294,2.73885 1.08965,4.8298 1.08965,2.09095 2.85665,3.15115 1.79645,1.0602 3.9463,1.0602 1.44305,0 2.62105,-0.32395 1.20745,-0.3534 2.32655,-1.0602 1.1191,-0.73625 2.0615,-1.56085 0.9424,-0.8246 2.44435,-2.2382 0.61845,-0.5301 1.767,-0.5301 1.2369,0 2.0026,0.67735 0.7657,0.67735 0.7657,1.91425 0,1.08965 -0.85405,2.56215 -0.85405,1.44305 -2.5916,2.79775 -1.7081,1.32525 -4.32915,2.20875 -2.5916,0.8835 -5.97835,0.8835 -7.74535,0 -12.04505,-4.4175 -4.2997,-4.4175 -4.2997,-11.98615 0,-3.56345 1.0602,-6.5968 1.0602,-3.0628 3.09225,-5.2421 2.03205,-2.1793 5.0065,-3.32785 2.97445,-1.17801 6.5968,-1.17801 4.712,0 8.0693,2.00261 3.38675,1.97315 5.0654,5.1243 1.67865,3.15115 1.67865,6.4201 0,3.03335 -1.73755,3.9463 -1.73755,0.8835 -4.8887,0.8835 z m -15.7263,-4.56475 14.57775,0 q -0.2945,-4.123 -2.2382,-6.15505 -1.91425,-2.0615 -5.0654,-2.0615 -3.0039,0 -4.9476,2.09095 -1.91425,2.0615 -2.32655,6.1256 z"
         style=""
         id="path3443" />
      <path
         d="m 228.21814,595.01102 0,12.28066 q 2.26765,-2.356 4.62365,-3.5929 2.356,-1.26636 5.8311,-1.26636 4.0052,0 7.0091,1.91426 3.03335,1.8848 4.68255,5.50715 1.67866,3.5929 1.67866,8.5405 0,3.6518 -0.9424,6.7146 -0.91296,3.03335 -2.67996,5.27155 -1.767,2.2382 -4.2997,3.4751 -2.50325,1.20745 -5.5366,1.20745 -1.85535,0 -3.50455,-0.44175 -1.61975,-0.44175 -2.7683,-1.14855 -1.14855,-0.73625 -1.97315,-1.50195 -0.79515,-0.7657 -2.1204,-2.2971 l 0,0.79515 q 0,2.26765 -1.08965,3.44565 -1.08965,1.14855 -2.7683,1.14855 -1.7081,0 -2.73885,-1.14855 -1.0013,-1.178 -1.0013,-3.44565 l 0,-35.10441 q 0,-2.44435 0.97185,-3.68125 1.0013,-1.26635 2.7683,-1.26635 1.85535,0 2.85665,1.20745 1.0013,1.178 1.0013,3.38675 z m 0.38285,23.88396 q 0,4.80035 2.1793,7.39195 2.20875,2.56215 5.7722,2.56215 3.03335,0 5.21265,-2.62105 2.20875,-2.6505 2.20875,-7.56865 0,-3.1806 -0.91295,-5.4777 -0.91295,-2.2971 -2.5916,-3.534 -1.67865,-1.26635 -3.91685,-1.26635 -2.2971,0 -4.09355,1.26635 -1.79645,1.2369 -2.8272,3.62235 -1.03075,2.356 -1.03075,5.62495 z"
         style=""
         id="path3445" />
      <path
         d="m 270.86175,615.86163 -3.0628,0 0,13.87095 q 0,2.73885 -1.20745,4.03465 -1.20745,1.2958 -3.15115,1.2958 -2.09095,0 -3.2395,-1.3547 -1.14855,-1.3547 -1.14855,-3.97575 l 0,-33.21961 q 0,-2.8272 1.26635,-4.09355 1.26635,-1.26635 4.09355,-1.26635 l 14.22436,0 q 2.945,0 5.03595,0.26505 2.09095,0.2356 3.7696,1.0013 2.03205,0.85405 3.5929,2.44435 1.56085,1.5903 2.356,3.7107 0.8246,2.09095 0.8246,4.44696 0,4.8298 -2.73885,7.7159 -2.7094,2.8861 -8.246,4.09355 2.32655,1.2369 4.44695,3.6518 2.1204,2.4149 3.7696,5.15375 1.67865,2.7094 2.5916,4.91815 0.9424,2.1793 0.9424,3.0039 0,0.85405 -0.55955,1.7081 -0.5301,0.8246 -1.4725,1.2958 -0.9424,0.50065 -2.1793,0.50065 -1.4725,0 -2.4738,-0.7068 -1.0013,-0.67735 -1.73755,-1.73755 -0.7068,-1.0602 -1.9437,-3.1217 l -3.50455,-5.8311 q -1.8848,-3.21005 -3.38675,-4.8887 -1.4725,-1.67865 -3.0039,-2.2971 -1.53141,-0.61845 -3.85796,-0.61845 z m 5.00651,-18.14121 -8.06931,0 0,11.86836 7.83371,0 q 3.15115,0 5.301,-0.5301 2.14985,-0.55955 3.26895,-1.85535 1.14855,-1.32525 1.14855,-3.62235 0,-1.79646 -0.91295,-3.15116 -0.91295,-1.38415 -2.5327,-2.0615 -1.5314,-0.6479 -6.03725,-0.6479 z"
         style=""
         id="path3447" />
      <path
         d="m 327.61192,598.36832 -9.5418,0 0,31.36426 q 0,2.7094 -1.20745,4.03465 -1.20746,1.2958 -3.12171,1.2958 -1.9437,0 -3.1806,-1.32525 -1.20745,-1.32525 -1.20745,-4.0052 l 0,-31.36426 -9.5418,0 q -2.2382,0 -3.32785,-0.97185 -1.08965,-1.0013 -1.08965,-2.62105 0,-1.67865 1.1191,-2.6505 1.14855,-0.97185 3.2984,-0.97185 l 27.80081,0 q 2.26765,0 3.3573,1.0013 1.1191,1.0013 1.1191,2.62105 0,1.61975 -1.1191,2.62105 -1.1191,0.97185 -3.3573,0.97185 z"
         style=""
         id="path3449" />
      <path
         d="m 372.52318,620.69143 q 0,2.0615 -1.03075,4.4764 -1.0013,2.38545 -3.1806,4.712 -2.1793,2.2971 -5.56605,3.74015 -3.38675,1.44305 -7.8926,1.44305 -3.4162,0 -6.21395,-0.6479 -2.79775,-0.6479 -5.09486,-2.0026 -2.26765,-1.38415 -4.1819,-3.62235 -1.7081,-2.03205 -2.91555,-4.5353 -1.20745,-2.5327 -1.8259,-5.38935 -0.589,-2.85665 -0.589,-6.0667 0,-5.21265 1.50195,-9.33565 1.5314,-4.12301 4.3586,-7.03856 2.8272,-2.945 6.62626,-4.4764 3.79905,-1.5314 8.09875,-1.5314 5.2421,0 9.33565,2.09095 4.09355,2.09095 6.27285,5.1832 2.1793,3.0628 2.1793,5.80166 0,1.50195 -1.0602,2.6505 -1.0602,1.14855 -2.56215,1.14855 -1.67865,0 -2.5327,-0.79515 -0.8246,-0.79515 -1.85535,-2.73885 -1.7081,-3.21006 -4.03465,-4.80036 -2.2971,-1.5903 -5.68385,-1.5903 -5.38935,0 -8.5994,4.09355 -3.18061,4.09356 -3.18061,11.63276 0,5.03595 1.41361,8.39325 1.4136,3.32785 4.0052,4.97705 2.5916,1.6492 6.0667,1.6492 3.7696,0 6.3612,-1.85535 2.62105,-1.8848 3.9463,-5.50715 0.55955,-1.7081 1.38415,-2.7683 0.8246,-1.08965 2.6505,-1.08965 1.56085,0 2.67995,1.08965 1.1191,1.08965 1.1191,2.7094 z"
         style=""
         id="path3451" />
    </g>
    <g
       id="g3502">
      <g
         transform="matrix(3.9482691,0,0,-3.9482691,263.23496,518.97915)"
         id="g376">
        <path
           inkscape:connector-curvature="0"
           id="path378"
           style="fill:#ff6600;fill-opacity:1;fill-rule:nonzero;stroke:none"
           d="m 0,0 c 0,-7.534 -6.107,-13.642 -13.641,-13.642 -7.535,0 -13.642,6.108 -13.642,13.642 0,7.534 6.107,13.642 13.642,13.642 C -6.107,13.642 0,7.534 0,0" />
      </g>
      <g
         transform="matrix(3.9482691,0,0,-3.9482691,369.76125,443.57273)"
         id="g404">
        <path
           inkscape:connector-curvature="0"
           id="path406"
           style="fill:#ffcc00;fill-opacity:1;fill-rule:nonzero;stroke:none"
           d="m 0,0 c 0,-7.533 -6.107,-13.642 -13.641,-13.642 -7.535,0 -13.642,6.109 -13.642,13.642 0,7.534 6.107,13.643 13.642,13.643 C -6.107,13.643 0,7.534 0,0" />
      </g>
      <g
         transform="matrix(3.9482691,0,0,-3.9482691,238.09949,442.37758)"
         id="g408">
        <path
           inkscape:connector-curvature="0"
           id="path410"
           style="fill:#0089cc;fill-opacity:1;fill-rule:nonzero;stroke:none"
           d="m 0,0 c 0,-7.533 -6.107,-13.642 -13.642,-13.642 -7.533,0 -13.641,6.109 -13.641,13.642 0,7.534 6.108,13.643 13.641,13.643 C -6.107,13.643 0,7.534 0,0" />
      </g>
      <g
         transform="matrix(3.9482691,0,0,-3.9482691,345.82485,518.97915)"
         id="g412">
        <path
           inkscape:connector-curvature="0"
           id="path414"
           style="fill:#009939;fill-opacity:1;fill-rule:nonzero;stroke:none"
           d="m 0,0 c 0,-7.534 -6.107,-13.642 -13.643,-13.642 -7.533,0 -13.641,6.108 -13.641,13.642 0,7.534 6.108,13.642 13.641,13.642 C -6.107,13.642 0,7.534 0,0" />
      </g>
      <g
         transform="matrix(3.9482691,0,0,-3.9482691,303.93214,394.49692)"
         id="g416">
        <path
           inkscape:connector-curvature="0"
           id="path418"
           style="fill:#bf0000;fill-opacity:1;fill-rule:nonzero;stroke:none"
           d="m 0,0 c 0,-7.534 -6.108,-13.642 -13.642,-13.642 -7.534,0 -13.642,6.108 -13.642,13.642 0,7.534 6.108,13.642 13.642,13.642 C -6.108,13.642 0,7.534 0,0" />
      </g>
      <g
         transform="matrix(3.9482691,0,0,-3.9482691,262.03983,443.57273)"
         id="g420">
        <path
           inkscape:connector-curvature="0"
           id="path422"
           style="fill:#fc0007;fill-opacity:1;fill-rule:nonzero;stroke:none"
           d="M 0,0 C 0,-0.287 0.025,-0.568 0.043,-0.851 6.094,0.545 10.61,5.955 10.61,12.43 c 0,0.287 -0.025,0.569 -0.043,0.852 C 4.516,11.885 0,6.475 0,0" />
      </g>
      <g
         transform="matrix(3.9482691,0,0,-3.9482691,269.1459,470.24289)"
         id="g424">
        <path
           inkscape:connector-curvature="0"
           id="path426"
           style="fill:#1cd306;fill-opacity:1;fill-rule:nonzero;stroke:none"
           d="m 0,0 c 2.351,-4.11 6.769,-6.887 11.843,-6.887 2.068,0 4.021,0.474 5.778,1.298 -2.35,4.11 -6.768,6.887 -11.843,6.887 C 3.71,1.298 1.757,0.824 0,0" />
      </g>
      <g
         transform="matrix(3.9482691,0,0,-3.9482691,238.09949,518.97915)"
         id="g428">
        <path
           inkscape:connector-curvature="0"
           id="path430"
           style="fill:#0f7504;fill-opacity:1;fill-rule:nonzero;stroke:none"
           d="M 0,0 C 0,-3.333 1.198,-6.383 3.184,-8.752 5.168,-6.383 6.366,-3.333 6.366,0 6.366,3.333 5.168,6.383 3.184,8.752 1.198,6.383 0,3.333 0,0" />
      </g>
      <g
         transform="matrix(3.9482691,0,0,-3.9482691,162.9126,491.82927)"
         id="g432">
        <path
           inkscape:connector-curvature="0"
           id="path434"
           style="fill:#0c5e87;fill-opacity:1;fill-rule:nonzero;stroke:none"
           d="m 0,0 c 1.657,-0.716 3.481,-1.117 5.401,-1.117 5.024,0 9.401,2.723 11.769,6.766 C 15.513,6.365 13.688,6.765 11.769,6.765 6.745,6.765 2.367,4.042 0,0" />
      </g>
      <g
         transform="matrix(3.9482691,0,0,-3.9482691,196.43855,389.95287)"
         id="g436">
        <path
           inkscape:connector-curvature="0"
           id="path438"
           style="fill:#6b0001;fill-opacity:1;fill-rule:nonzero;stroke:none"
           d="m 0,0 c -0.032,-0.38 -0.059,-0.762 -0.059,-1.151 0,-6.47 4.509,-11.875 10.553,-13.277 0.031,0.38 0.058,0.762 0.058,1.15 C 10.552,-6.808 6.044,-1.401 0,0" />
      </g>
      <g
         transform="matrix(3.9482691,0,0,-3.9482691,201.46628,512.31444)"
         id="g482">
        <path
           inkscape:connector-curvature="0"
           id="path484"
           style="fill:#ffffff;fill-opacity:1;fill-rule:nonzero;stroke:none"
           d="M 0,0 -2.134,0 C -4.018,0 -5.55,1.527 -5.55,3.406 l 0,19.316 c 0,1.879 1.532,3.407 3.416,3.407 l 26.759,0 c 1.884,0 3.415,-1.528 3.415,-3.407 l 0,-19.316 C 28.04,1.527 26.509,0 24.625,0 L 15.509,0 -2.781,-8.966 0,0 Z" />
      </g>
    </g>
  </g>
</svg>
