<?xml version="1.0" encoding="UTF-8" standalone="no"?>
<!-- Created with Inkscape (http://www.inkscape.org/) -->
<svg xmlns:rdf="http://www.w3.org/1999/02/22-rdf-syntax-ns#" xmlns="http://www.w3.org/2000/svg" height="305" width="255" version="1.1" xmlns:cc="http://creativecommons.org/ns#" xmlns:dc="http://purl.org/dc/elements/1.1/">
 <metadata>
  <rdf:RDF>
   <cc:Work rdf:about="">
    <dc:format>image/svg+xml</dc:format>
    <dc:type rdf:resource="http://purl.org/dc/dcmitype/StillImage"/>
    <dc:title/>
   </cc:Work>
  </rdf:RDF>
 </metadata>
 <g transform="translate(-122.62 -335.06)">
  <g fill="#333">
   <path style="" d="m161.87 627.52-6.9796-25.887-7.068 25.887q-0.8246 2.945-1.3252 4.2408-0.4712 1.2664-1.6786 2.2971-1.2074 1.0013-3.21 1.0013-1.6198 0-2.68-0.61845-1.0308-0.589-1.6786-1.6786-0.6479-1.1191-1.0602-2.621-0.4123-1.5314-0.73625-2.8272l-7.1858-29.067q-0.6479-2.5327-0.6479-3.858 0-1.6786 1.178-2.8272t2.9156-1.1486q2.3854 0 3.21 1.5314t1.443 4.447l5.6544 25.209 6.3318-23.589q0.7068-2.7094 1.2664-4.123 0.55955-1.4136 1.8259-2.4444t3.4456-1.0308q2.2088 0 3.4162 1.0896 1.2369 1.0602 1.7081 2.3266t1.2664 4.1819l6.3907 23.589 5.6544-25.209q0.4123-1.9732 0.7657-3.0922 0.38285-1.1191 1.2664-2.0026 0.91295-0.8835 2.621-0.8835 1.7081 0 2.8861 1.1486 1.2074 1.1191 1.2074 2.8272 0 1.2074-0.6479 3.858l-7.1858 29.067q-0.73625 2.945-1.2369 4.3292-0.4712 1.3547-1.6492 2.3854-1.1486 1.0308-3.269 1.0308-2.0026 0-3.21-1.0013-1.2075-1.0013-1.6787-2.2382-0.4712-1.2664-1.3252-4.2997z"/>
   <path style="" d="m208.25 620.69h-15.726q0.0294 2.7388 1.0896 4.8298 1.0896 2.091 2.8566 3.1512 1.7964 1.0602 3.9463 1.0602 1.443 0 2.621-0.32395 1.2074-0.3534 2.3266-1.0602 1.1191-0.73625 2.0615-1.5608 0.9424-0.8246 2.4444-2.2382 0.61845-0.5301 1.767-0.5301 1.2369 0 2.0026 0.67735t0.7657 1.9142q0 1.0896-0.85405 2.5622-0.85405 1.443-2.5916 2.7978-1.7081 1.3252-4.3292 2.2088-2.5916 0.8835-5.9784 0.8835-7.7454 0-12.045-4.4175-4.2997-4.4175-4.2997-11.986 0-3.5634 1.0602-6.5968 1.0602-3.0628 3.0922-5.2421t5.0065-3.3278q2.9744-1.178 6.5968-1.178 4.712 0 8.0693 2.0026 3.3868 1.9732 5.0654 5.1243 1.6786 3.1512 1.6786 6.4201 0 3.0334-1.7376 3.9463-1.7376 0.8835-4.8887 0.8835zm-15.726-4.5648h14.578q-0.2945-4.123-2.2382-6.155-1.9142-2.0615-5.0654-2.0615-3.0039 0-4.9476 2.091-1.9142 2.0615-2.3266 6.1256z"/>
   <path style="" d="m228.22 595.01v12.281q2.2676-2.356 4.6236-3.5929 2.356-1.2664 5.8311-1.2664 4.0052 0 7.0091 1.9143 3.0334 1.8848 4.6826 5.5072 1.6787 3.5929 1.6787 8.5405 0 3.6518-0.9424 6.7146-0.91296 3.0334-2.68 5.2716t-4.2997 3.4751q-2.5032 1.2074-5.5366 1.2074-1.8554 0-3.5046-0.44175-1.6198-0.44175-2.7683-1.1486-1.1486-0.73625-1.9732-1.502-0.79515-0.7657-2.1204-2.2971v0.79515q0 2.2676-1.0896 3.4456-1.0896 1.1486-2.7683 1.1486-1.7081 0-2.7388-1.1486-1.0013-1.178-1.0013-3.4456v-35.104q0-2.4444 0.97185-3.6812 1.0013-1.2664 2.7683-1.2664 1.8554 0 2.8566 1.2074 1.0013 1.178 1.0013 3.3868zm0.38285 23.884q0 4.8004 2.1793 7.392 2.2088 2.5622 5.7722 2.5622 3.0334 0 5.2126-2.621 2.2088-2.6505 2.2088-7.5686 0-3.1806-0.91295-5.4777t-2.5916-3.534q-1.6786-1.2664-3.9168-1.2664-2.2971 0-4.0936 1.2664-1.7964 1.2369-2.8272 3.6224-1.0308 2.356-1.0308 5.625z"/>
   <path style="" d="m270.86 615.86h-3.0628v13.871q0 2.7388-1.2074 4.0346t-3.1512 1.2958q-2.091 0-3.2395-1.3547-1.1486-1.3547-1.1486-3.9758v-33.22q0-2.8272 1.2664-4.0936t4.0936-1.2664h14.224q2.945 0 5.036 0.26505 2.091 0.2356 3.7696 1.0013 2.032 0.85405 3.5929 2.4444 1.5608 1.5903 2.356 3.7107 0.8246 2.091 0.8246 4.447 0 4.8298-2.7388 7.7159-2.7094 2.8861-8.246 4.0936 2.3266 1.2369 4.447 3.6518t3.7696 5.1538q1.6786 2.7094 2.5916 4.9182 0.9424 2.1793 0.9424 3.0039 0 0.85405-0.55955 1.7081-0.5301 0.8246-1.4725 1.2958-0.9424 0.50065-2.1793 0.50065-1.4725 0-2.4738-0.7068-1.0013-0.67735-1.7376-1.7376-0.7068-1.0602-1.9437-3.1217l-3.5046-5.8311q-1.8848-3.21-3.3868-4.8887-1.4725-1.6786-3.0039-2.2971-1.5314-0.61845-3.858-0.61845zm5.0065-18.141h-8.0693v11.868h7.8337q3.1512 0 5.301-0.5301 2.1498-0.55955 3.269-1.8554 1.1486-1.3252 1.1486-3.6224 0-1.7965-0.91295-3.1512-0.91295-1.3842-2.5327-2.0615-1.5314-0.6479-6.0372-0.6479z"/>
   <path style="" d="m327.61 598.37h-9.5418v31.364q0 2.7094-1.2074 4.0346-1.2075 1.2958-3.1217 1.2958-1.9437 0-3.1806-1.3252-1.2074-1.3252-1.2074-4.0052v-31.364h-9.5418q-2.2382 0-3.3278-0.97185-1.0896-1.0013-1.0896-2.621 0-1.6786 1.1191-2.6505 1.1486-0.97185 3.2984-0.97185h27.801q2.2676 0 3.3573 1.0013 1.1191 1.0013 1.1191 2.621 0 1.6198-1.1191 2.621-1.1191 0.97185-3.3573 0.97185z"/>
   <path style="" d="m372.52 620.69q0 2.0615-1.0308 4.4764-1.0013 2.3854-3.1806 4.712-2.1793 2.2971-5.566 3.7402-3.3868 1.443-7.8926 1.443-3.4162 0-6.214-0.6479t-5.0949-2.0026q-2.2676-1.3842-4.1819-3.6224-1.7081-2.032-2.9156-4.5353-1.2074-2.5327-1.8259-5.3894-0.589-2.8566-0.589-6.0667 0-5.2126 1.502-9.3356 1.5314-4.123 4.3586-7.0386 2.8272-2.945 6.6263-4.4764 3.799-1.5314 8.0988-1.5314 5.2421 0 9.3356 2.091 4.0936 2.091 6.2728 5.1832 2.1793 3.0628 2.1793 5.8017 0 1.502-1.0602 2.6505-1.0602 1.1486-2.5622 1.1486-1.6786 0-2.5327-0.79515-0.8246-0.79515-1.8554-2.7388-1.7081-3.2101-4.0346-4.8004-2.2971-1.5903-5.6838-1.5903-5.3894 0-8.5994 4.0936-3.1806 4.0936-3.1806 11.633 0 5.036 1.4136 8.3932 1.4136 3.3278 4.0052 4.977t6.0667 1.6492q3.7696 0 6.3612-1.8554 2.621-1.8848 3.9463-5.5072 0.55955-1.7081 1.3842-2.7683 0.8246-1.0896 2.6505-1.0896 1.5608 0 2.68 1.0896 1.1191 1.0896 1.1191 2.7094z"/>
  </g>
  <g transform="matrix(3.9483 0 0 -3.9483 263.23 518.98)">
   <path d="m0 0c0-7.534-6.107-13.642-13.641-13.642-7.535 0-13.642 6.108-13.642 13.642s6.107 13.642 13.642 13.642c7.534 0 13.641-6.108 13.641-13.642" fill="#f60"/>
  </g>
  <g transform="matrix(3.9483 0 0 -3.9483 369.76 443.57)">
   <path d="m0 0c0-7.533-6.107-13.642-13.641-13.642-7.535 0-13.642 6.109-13.642 13.642 0 7.534 6.107 13.643 13.642 13.643 7.534 0 13.641-6.109 13.641-13.643" fill="#fc0"/>
  </g>
  <g transform="matrix(3.9483 0 0 -3.9483 238.1 442.38)">
   <path d="m0 0c0-7.533-6.107-13.642-13.642-13.642-7.533 0-13.641 6.109-13.641 13.642 0 7.534 6.108 13.643 13.641 13.643 7.535 0 13.642-6.109 13.642-13.643" fill="#0089cc"/>
  </g>
  <g transform="matrix(3.9483 0 0 -3.9483 345.82 518.98)">
   <path d="m0 0c0-7.534-6.107-13.642-13.643-13.642-7.533 0-13.641 6.108-13.641 13.642s6.108 13.642 13.641 13.642c7.536 0 13.643-6.108 13.643-13.642" fill="#009939"/>
  </g>
  <g transform="matrix(3.9483 0 0 -3.9483 303.93 394.5)">
   <path d="m0 0c0-7.534-6.108-13.642-13.642-13.642s-13.642 6.108-13.642 13.642 6.108 13.642 13.642 13.642 13.642-6.108 13.642-13.642" fill="#bf0000"/>
  </g>
  <g transform="matrix(3.9483 0 0 -3.9483 262.04 443.57)">
   <path d="m0 0c0-0.287 0.025-0.568 0.043-0.851 6.051 1.396 10.567 6.806 10.567 13.281 0 0.287-0.025 0.569-0.043 0.852-6.051-1.397-10.567-6.807-10.567-13.282" fill="#fc0007"/>
  </g>
  <g transform="matrix(3.9483 0 0 -3.9483 269.15 470.24)">
   <path d="m0 0c2.351-4.11 6.769-6.887 11.843-6.887 2.068 0 4.021 0.474 5.778 1.298-2.35 4.11-6.768 6.887-11.843 6.887-2.068 0-4.021-0.474-5.778-1.298" fill="#1cd306"/>
  </g>
  <g transform="matrix(3.9483 0 0 -3.9483 238.1 518.98)">
   <path d="m0 0c0-3.333 1.198-6.383 3.184-8.752 1.984 2.369 3.182 5.419 3.182 8.752s-1.198 6.383-3.182 8.752c-1.986-2.369-3.184-5.419-3.184-8.752" fill="#0f7504"/>
  </g>
  <g transform="matrix(3.9483 0 0 -3.9483 162.91 491.83)">
   <path d="m0 0c1.657-0.716 3.481-1.117 5.401-1.117 5.024 0 9.401 2.723 11.769 6.766-1.657 0.716-3.482 1.116-5.401 1.116-5.024 0-9.402-2.723-11.769-6.765" fill="#0c5e87"/>
  </g>
  <g transform="matrix(3.9483 0 0 -3.9483 196.44 389.95)">
   <path d="m0 0c-0.032-0.38-0.059-0.762-0.059-1.151 0-6.47 4.509-11.875 10.553-13.277 0.031 0.38 0.058 0.762 0.058 1.15 0 6.47-4.508 11.877-10.552 13.278" fill="#6b0001"/>
  </g>
  <g transform="matrix(3.9483 0 0 -3.9483 201.47 512.31)">
   <path d="m0 0h-2.134c-1.884 0-3.416 1.527-3.416 3.406v19.316c0 1.879 1.532 3.407 3.416 3.407h26.759c1.884 0 3.415-1.528 3.415-3.407v-19.316c0-1.879-1.531-3.406-3.415-3.406h-9.116l-18.29-8.966 2.781 8.966z" fill="#fff"/>
  </g>
 </g>
</svg>
